<svg id="Layer_1" data-name="Layer 1" xmlns="http://www.w3.org/2000/svg" viewBox="0 0 75 41"><defs><style>.cls-1{fill:#fbc400;}</style></defs><path class="cls-1" d="M37.51,37.61c-14.61,0-27.22-12.89-30.86-17,3.64-4.1,16.25-17,30.86-17s27.21,12.9,30.86,17C64.72,24.72,52.11,37.61,37.51,37.61Z"/><path d="M37.51,5.61c12.49,0,23.59,10.18,28.15,15-4.56,4.83-15.66,15-28.15,15s-23.6-10.17-28.15-15c4.56-4.82,15.65-15,28.15-15m0-4C19,1.61,4,20.61,4,20.61s15,19,33.49,19S71,20.61,71,20.61s-15-19-33.48-19Z"/><circle class="cls-1" cx="37.5" cy="25.5" r="10.5"/><path d="M37.5,17A8.5,8.5,0,1,1,29,25.5,8.51,8.51,0,0,1,37.5,17m0-4A12.5,12.5,0,1,0,50,25.5,12.5,12.5,0,0,0,37.5,13Z"/></svg>